Coordinates
version=1
nRows=12
nColumns=46
inDegrees=yes

Units are S.I. units (second, meters, Newtons, ...)
Angles are in degrees.

endheader
time	pelvis_tilt	pelvis_list	pelvis_rotation	pelvis_tx	pelvis_ty	pelvis_tz	bb_angle	bb_tx	bb_ty	bb_tz	hip_flexion_r	hip_adduction_r	hip_rotation_r	knee_angle_r	knee_angle_r_beta	ankle_angle_r	subtalar_angle_r	mtp_angle_r	crank_angle_r	hip_flexion_l	hip_adduction_l	hip_rotation_l	knee_angle_l	knee_angle_l_beta	ankle_angle_l	subtalar_angle_l	mtp_angle_l	crank_angle_l	lumbar_extension	lumbar_bending	lumbar_rotation	arm_flex_r	arm_add_r	arm_rot_r	elbow_flex_r	pro_sup_r	wrist_flex_r	wrist_dev_r	arm_flex_l	arm_add_l	arm_rot_l	elbow_flex_l	pro_sup_l	wrist_flex_l	wrist_dev_l
      7.50000000	    -23.45435506	     11.03222673	      6.37680031	      0.37083356	      1.10439173	     -0.28899667	      0.00000000	      0.50000000	      0.00000000	      0.25000000	     35.46315692	    -18.13310367	     -2.55558067	     39.44496869	      0.68844458	    -26.49906154	     -3.05020238	      0.00000000	      0.00000000	     82.55442311	      0.11000613	     -3.03475749	    100.08991888	      1.74689863	     -1.78086318	     -1.87394479	      0.00000000	      0.00000000	    -67.86774538	     -8.96549227	     -4.03331538	     59.72871408	    -33.86105758	     24.31078327	     80.28620202	     47.44534759	      0.00000000	      0.00000000	     78.00440103	    -12.93855872	     40.52112706	     68.60695224	     45.42619743	      0.00000000	      0.00000000
      7.50500000	    -23.68455546	     10.41313880	      6.29684653	      0.37053220	      1.10627331	     -0.28779253	      0.00000000	      0.50000000	      0.00000000	      0.25000000	     36.35197667	    -17.41523285	     -2.22979235	     41.39608946	      0.72249806	    -26.74341982	     -3.47615960	      0.00000000	      0.00000000	     81.64606803	     -0.33965749	     -2.78064047	     97.94539280	      1.70946959	      0.20395482	     -1.14114110	      0.00000000	      0.00000000	    -67.93992854	     -9.08472507	     -4.12029658	     59.97739245	    -32.66145659	     23.39053676	     79.36130479	     47.18185223	      0.00000000	      0.00000000	     76.32875024	    -12.17218164	     35.67317600	     70.75376639	     45.26499996	      0.00000000	      0.00000000
      7.51000000	    -23.56904509	      9.90357559	      6.32216287	      0.37028566	      1.10855668	     -0.28674228	      0.00000000	      0.50000000	      0.00000000	      0.25000000	     36.87117176	    -16.87390066	     -2.01650881	     43.46096525	      0.75853694	    -26.63498681	     -3.98830745	      0.00000000	      0.00000000	     80.20130552	     -0.64193627	     -2.73339374	     95.59384055	      1.66842726	      2.12421128	     -1.04130227	      0.00000000	      0.00000000	    -68.34536004	     -9.10313979	     -4.39249884	     60.69533227	    -31.73047135	     23.48496487	     78.26167174	     47.00306175	      0.00000000	      0.00000000	     75.54863926	    -11.80665882	     33.35332758	     72.02575308	     45.23658235	      0.00000000	      0.00000000
      7.51500000	    -23.76050174	      9.37421350	      6.26134650	      0.37027940	      1.11027784	     -0.28584946	      0.00000000	      0.50000000	      0.00000000	      0.25000000	     37.83209529	    -16.24934003	     -1.54720136	     45.67762510	      0.79722495	    -26.34843134	     -4.37525777	      0.00000000	      0.00000000	     78.95647080	     -1.10087675	     -2.89155723	     93.12814672	      1.62539279	      3.90274862	     -1.01407666	      0.00000000	      0.00000000	    -68.44584857	     -9.28793256	     -4.28005923	     60.82695284	    -31.50329159	     23.40170446	     77.93021157	     46.93696492	      0.00000000	      0.00000000	     75.23695191	    -11.37953005	     32.75999072	     72.57445172	     45.26391334	      0.00000000	      0.00000000
      7.52000000	    -24.05559230	      8.75248465	      6.10674747	      0.37044596	      1.11148523	     -0.28506157	      0.00000000	      0.50000000	      0.00000000	      0.25000000	     39.00800106	    -15.47519458	     -0.97352135	     48.04915059	      0.83861588	    -25.92582524	     -4.55392368	      0.00000000	      0.00000000	     77.82140877	     -1.60185041	     -2.89909419	     90.54944294	      1.58038592	      5.35870966	     -1.02341188	      0.00000000	      0.00000000	    -68.26419376	     -9.37576831	     -4.46403147	     61.14230643	    -30.05065116	     22.96704184	     76.75104209	     46.69211557	      0.00000000	      0.00000000	     73.75647552	    -10.84042010	     29.42653707	     74.25556683	     45.20183603	      0.00000000	      0.00000000
      7.52500000	    -23.68929937	      8.15409045	      6.31897218	      0.37013069	      1.11371790	     -0.28451218	      0.00000000	      0.50000000	      0.00000000	      0.25000000	     39.38573633	    -14.90877173	     -0.79556979	     50.40248120	      0.87968925	    -25.70452300	     -4.79212044	      0.00000000	      0.00000000	     75.99238382	     -1.72475056	     -2.98121604	     87.73299144	      1.53122956	      6.18406003	     -1.73707674	      0.00000000	      0.00000000	    -68.82079826	     -9.08997672	     -4.37471106	     61.57299659	    -29.70974839	     22.96607128	     76.42646696	     46.63225450	      0.00000000	      0.00000000	     73.70241207	    -10.43184316	     29.02473302	     74.59199491	     45.21337896	      0.00000000	      0.00000000
      7.53000000	    -23.47660335	      7.67590102	      6.36175426	      0.37034916	      1.11564875	     -0.28430198	      0.00000000	      0.50000000	      0.00000000	      0.25000000	     40.00701892	    -14.43538323	     -0.42108295	     52.75946593	      0.92082639	    -25.10991014	     -4.91960695	      0.00000000	      0.00000000	     74.18358566	     -2.04975100	     -3.52491410	     84.72226902	      1.47868254	      6.27772262	     -3.00457570	      0.00000000	      0.00000000	    -69.07444635	     -8.85453621	     -5.05322370	     62.68765579	    -27.77173980	     23.34094550	     74.02997136	     46.27246320	      0.00000000	      0.00000000	     72.41743011	    -10.20965714	     25.33381302	     76.27306057	     45.12731089	      0.00000000	      0.00000000
      7.53500000	    -23.32649073	      7.07246139	      6.40131125	      0.37018235	      1.11710592	     -0.28413864	      0.00000000	      0.50000000	      0.00000000	      0.25000000	     40.79294142	    -13.81136280	     -0.12890409	     55.14481931	      0.96245866	    -25.03954579	     -4.79899577	      0.00000000	      0.00000000	     72.61573144	     -2.27079650	     -3.70630539	     81.75269484	      1.42685370	      5.85461941	     -4.26718997	      0.00000000	      0.00000000	    -69.25476534	     -8.70934149	     -4.90462930	     62.93562036	    -27.39348901	     23.41606824	     73.49761605	     46.19268736	      0.00000000	      0.00000000	     72.05302210	     -9.93265958	     24.70804240	     76.49296808	     45.10361135	      0.00000000	      0.00000000
      7.54000000	    -23.03124228	      6.43116853	      6.36865657	      0.37017760	      1.11852577	     -0.28389759	      0.00000000	      0.50000000	      0.00000000	      0.25000000	     41.43735817	    -13.10619715	      0.19846962	     57.50766643	      1.00369812	    -24.68602865	     -4.66221245	      0.00000000	      0.00000000	     70.89022065	     -2.73450654	     -4.07937393	     78.77983803	      1.37496756	      5.28925202	     -5.03198582	      0.00000000	      0.00000000	    -69.53273614	     -8.58482372	     -4.76480449	     63.36098627	    -26.78103628	     23.48080104	     72.69407854	     46.06072051	      0.00000000	      0.00000000	     71.59493944	     -9.46196539	     23.70980814	     76.86868615	     45.06711977	      0.00000000	      0.00000000
      7.54500000	    -22.77956284	      5.43875529	      6.42201763	      0.36997295	      1.11949079	     -0.28380494	      0.00000000	      0.50000000	      0.00000000	      0.25000000	     42.07244343	    -12.08958420	      0.23582089	     59.74517222	      1.04274997	    -24.48386281	     -4.82817613	      0.00000000	      0.00000000	     69.43211171	     -3.27199292	     -3.94905625	     76.02509550	      1.32688823	      4.69626820	     -5.05099584	      0.00000000	      0.00000000	    -69.61282616	     -8.16147040	     -4.20220917	     63.51834160	    -26.37199536	     23.57622347	     72.42405794	     46.02271622	      0.00000000	      0.00000000	     71.23234035	     -9.25912404	     23.40657864	     77.01431294	     45.06295932	      0.00000000	      0.00000000
      7.55000000	    -22.47309521	      4.83946654	      6.41323021	      0.36973325	      1.12039036	     -0.28394387	      0.00000000	      0.50000000	      0.00000000	      0.25000000	     42.80462016	    -11.50296666	      0.40722275	     62.08136841	      1.08352428	    -24.16965181	     -4.71155502	      0.00000000	      0.00000000	     67.80736032	     -3.65819212	     -4.25437337	     73.18188790	      1.27726490	      3.60607321	     -5.69582331	      0.00000000	      0.00000000	    -69.63697358	     -7.74551834	     -5.17102586	     65.39158355	    -23.53772694	     24.48712453	     68.18813977	     45.40204198	      0.00000000	      0.00000000	     69.63610871	     -9.09436317	     18.82043224	     78.76658670	     44.91502446	      0.00000000	      0.00000000
      7.55500000	    -22.23322829	      3.95199988	      6.39286395	      0.36936116	      1.12076781	     -0.28385219	      0.00000000	      0.50000000	      0.00000000	      0.25000000	     43.61873578	    -10.57599716	      0.44363845	     64.40890446	      1.12414745	    -23.91218337	     -4.79026980	      0.00000000	      0.00000000	     66.43879846	     -4.28845121	     -4.18555126	     70.57532922	      1.23177187	      2.63699254	     -5.31278226	      0.00000000	      0.00000000	    -69.68942017	     -7.40321148	     -4.70015806	     65.69128870	    -23.17586591	     24.61473641	     67.92698828	     45.37178438	      0.00000000	      0.00000000	     69.41543361	     -9.10565641	     18.69853925	     79.04559243	     44.95404498	      0.00000000	      0.00000000
